# xmcd
#
# Track frame offsets:
#  150
#  28197
#  47815
#  64479
#  84225
#  96317
#  109712
#  126484
#  149829
#  176738
#  206167
#  226352
#
# Disc length: 3345 seconds
#
# Revision: 1
# Processed by: cddbd v1.5.1PL2 Copyright (c) Steve Scherf et al.
# Submitted via: Collectorz.com_Music_Collector 6.11
#
DISCID=ba0d0f0c
DTITLE=The Montreal Jubilation Gospel Choir - I'll Take You There
DYEAR=2005
DGENRE=Gospel
TTITLE0=Blues Waltz
TTITLE1=Oh La Di Da
TTITLE2=I'll Take You There
TTITLE3=Back To The Dust
TTITLE4=People Get Ready
TTITLE5=Hammer and Nails
TTITLE6=Glory Glory
TTITLE7=Oh Mary
TTITLE8=Still Haven't Found
TTITLE9=He's A Shelter
TTITLE10=Move On Up
TTITLE11=Soulful Hallelujah
EXTD=
EXTT0=
EXTT1=
EXTT2=
EXTT3=
EXTT4=
EXTT5=
EXTT6=
EXTT7=
EXTT8=
EXTT9=
EXTT10=
EXTT11=
PLAYORDER=
